<?xml version="1.0" encoding="UTF-8" standalone="no"?>
<svg
   xmlns:dc="http://purl.org/dc/elements/1.1/"
   xmlns:cc="http://creativecommons.org/ns#"
   xmlns:rdf="http://www.w3.org/1999/02/22-rdf-syntax-ns#"
   xmlns:svg="http://www.w3.org/2000/svg"
   xmlns="http://www.w3.org/2000/svg"
   id="svg11"
   version="1.1"
   viewBox="0 0 108.984 109.141"
   height="109.141"
   width="108.984">
  <metadata
     id="metadata17">
    <rdf:RDF>
      <cc:Work
         rdf:about="">
        <dc:format>image/svg+xml</dc:format>
        <dc:type
           rdf:resource="http://purl.org/dc/dcmitype/StillImage" />
      </cc:Work>
    </rdf:RDF>
  </metadata>
  <defs
     id="defs15" />
  <g
     transform="translate(-54.55,-195.5)"
     id="DrawHub_Icon">
    <path
       style="fill:#f2be54"
       transform="translate(2184,1986)"
       d="m -2073.475,-1790.014 c -1.069,-0.206 3.663,-0.683 10.976,0.99 a 56.435,56.435 0 0 1 6.685,2.1 39.578,39.578 0 0 1 7.409,3.365 66.311,66.311 0 0 1 10.036,7.223 49.877,49.877 0 0 1 5.757,6.092 c 1.057,1.356 2.392,3.377 3.73,5.168 a 62.648,62.648 0 0 1 4.447,8.829 47.026,47.026 0 0 1 3.357,12.551 52.38,52.38 0 0 1 -1.471,22.555 56.345,56.345 0 0 1 -7.164,15.568 57.864,57.864 0 0 1 -13.248,13.811 56.49,56.49 0 0 1 -16.9,8.214 48.919,48.919 0 0 1 -8.142,1.716 53.069,53.069 0 0 1 -6.47,0.342 3.975,3.975 0 0 1 -3.217,-0.621 59.2,59.2 0 0 1 -9.212,-9.592 c -3.666,-4.953 -6.83,-11.716 -6.972,-19.027 -0.105,-5.326 2.374,-11.426 7.731,-17.28 a 44.759,44.759 0 0 1 10.48,-8.095 c 0.633,-0.379 1.776,-1.149 2.765,-1.685 12.78,-8.417 16.62,-17.329 16.264,-25.71 -0.272,-6.491 -3.433,-12.706 -7.12,-17.492 -4.012,-5.201 -8.895,-8.863 -9.721,-9.022 z"
       data-name="Path 7"
       id="Path_7" />
    <path
       style="fill:#191a1d"
       transform="translate(2148,1986)"
       d="m -2040.326,-1681.416 c 0.7,0.135 -1.02,0.021 -3.952,-0.282 a 52.94,52.94 0 0 1 -7.143,-1.109 66.3,66.3 0 0 1 -12.025,-4.423 53.556,53.556 0 0 1 -14.977,-11.156 85.848,85.848 0 0 1 -6.352,-7.92 31.127,31.127 0 0 1 -3.129,-5.629 65.083,65.083 0 0 1 -3.295,-8.47 47.392,47.392 0 0 1 -2.243,-15.175 61.1,61.1 0 0 1 1.471,-13.358 55.906,55.906 0 0 1 7.548,-17.255 54.39,54.39 0 0 1 6.666,-8.08 63.35,63.35 0 0 1 11.075,-8.75 46.709,46.709 0 0 1 11.153,-4.936 47.653,47.653 0 0 1 16.394,-2.5 c 4.471,-0.507 40.907,31.987 -2.664,55.581 -35.745,23.544 -0.927,53 1.473,53.462 z"
       data-name="Path 8"
       id="Path_8" />
    <g
       id="D"
       style="font-weight:700;font-size:50px;font-family:HelveticaNeue-Bold, 'Helvetica Neue';fill:#f2be54"
       transform="translate(72,251)"
       aria-label="D">
      <path
         id="path19"
         style=""
         d="m 13.989258,-29.345703 v 22.2412108 h 3.36914 q 5.761719,0 8.789063,-2.8564453 3.051758,-2.8564455 3.051758,-8.3007815 0,-5.419922 -3.027344,-8.251953 -3.027344,-2.832031 -8.813477,-2.832031 z m -9.3994143,-7.104492 h 9.9121093 q 8.300781,0 12.353516,1.196289 4.077148,1.171875 6.982422,4.003906 2.563476,2.46582 3.808593,5.688477 1.245118,3.222656 1.245118,7.299804 0,4.125977 -1.245118,7.373047 -1.245117,3.2226564 -3.808593,5.6884767 -2.929688,2.8320312 -7.03125,4.0283203 Q 22.705078,0 14.501953,0 H 4.5898437 Z" />
    </g>
    <g
       id="H"
       style="font-weight:700;font-size:50px;font-family:HelveticaNeue-Bold, 'Helvetica Neue';fill:#191a1d"
       transform="translate(112,286)"
       aria-label="H">
      <path
         id="path22"
         style=""
         d="m 4.5898437,-36.450195 h 9.3994143 v 13.891601 h 13.867187 v -13.891601 h 9.399414 V 0 H 27.856445 V -15.454102 H 13.989258 V 0 H 4.5898437 Z" />
    </g>
  </g>
</svg>
