<svg xmlns="http://www.w3.org/2000/svg" width="46.898" height="41.035" viewBox="0 0 46.898 41.035">
  <path id="Icon_awesome-eraser" data-name="Icon awesome-eraser" d="M45.61,24.411a4.4,4.4,0,0,0,0-6.218L30.954,3.538a4.4,4.4,0,0,0-6.218,0L1.288,26.987a4.4,4.4,0,0,0,0,6.218L10.081,42a4.4,4.4,0,0,0,3.109,1.288H45.8a1.1,1.1,0,0,0,1.1-1.1V38.522a1.1,1.1,0,0,0-1.1-1.1H32.6L45.61,24.411ZM17.89,18.675,30.473,31.258l-6.166,6.166H13.8L6.469,30.1,17.89,18.675Z" transform="translate(0 -2.25)" fill="#191a1d"/>
</svg>
