<?xml version="1.0" encoding="UTF-8" standalone="no"?>
<svg xmlns:dc="http://purl.org/dc/elements/1.1/" xmlns:cc="http://creativecommons.org/ns#"
   xmlns:rdf="http://www.w3.org/1999/02/22-rdf-syntax-ns#" xmlns:svg="http://www.w3.org/2000/svg"
   xmlns="http://www.w3.org/2000/svg" id="svg11" version="1.1" viewBox="0 0 109 34" height="34" width="109">
   <metadata id="metadata17">
      <rdf:RDF>
         <cc:Work rdf:about="">
            <dc:format>image/svg+xml</dc:format>
            <dc:type rdf:resource="http://purl.org/dc/dcmitype/StillImage" />
         </cc:Work>
      </rdf:RDF>
   </metadata>
   <g transform="translate(-46,-105)" id="DrawHub_Logo">
      <path id="MainBackground"
         d="m 4,0 h 101 c 2.216,0 4,1.784 4,4 v 26 c 0,2.216 -1.784,4 -4,4 H 4 C 1.784,34 0,32.216 0,30 V 4 C 0,1.784 1.784,0 4,0 Z"
         style="fill:#191a1d" transform="translate(46,105)" />
      <path id="HubBackground"
         d="m 4,0 h 36 c 2.216,0 4,1.784 4,4 v 18 c 0,2.216 -1.784,4 -4,4 H 4 C 1.784,26 0,24.216 0,22 V 4 C 0,1.784 1.784,0 4,0 Z"
         style="fill:#f2be54" transform="translate(107,109)" />
      <g id="Draw" style="fill:#ffffff" transform="translate(50,130) scale(0.87 0.98)" aria-label="Draw">
         <path id="path21" style=""
            d="m 6.1552734,-12.912109 v 9.7861324 h 1.4824219 q 2.5351567,0 3.8671877,-1.2568359 1.342773,-1.2568359 1.342773,-3.6523438 0,-2.3847657 -1.332031,-3.6308597 -1.332031,-1.246093 -3.8779297,-1.246093 z m -4.1357421,-3.125977 h 4.3613281 q 3.6523436,0 5.4355466,0.526367 1.793946,0.515625 3.072266,1.761719 1.12793,1.084961 1.675781,2.50293 0.547852,1.4179684 0.547852,3.2119137 0,1.8154297 -0.547852,3.2441407 -0.547851,1.4179687 -1.675781,2.5029297 -1.289063,1.2460937 -3.09375,1.7724609 Q 9.9902344,0 6.3808594,0 H 2.0195313 Z" />
         <path id="path23" style=""
            d="m 29.046875,-8.7548828 q -0.504883,-0.2363281 -1.009766,-0.34375 -0.49414,-0.1181641 -0.999023,-0.1181641 -1.482422,0 -2.288086,0.9560547 -0.794922,0.9453125 -0.794922,2.7177735 V 0 h -3.845703 v -12.03125 h 3.845703 v 1.976562 q 0.741211,-1.18164 1.697266,-1.71875 0.966797,-0.547851 2.30957,-0.547851 0.193359,0 0.418945,0.02148 0.225586,0.01074 0.655274,0.06445 z" />
         <path id="path25" style=""
            d="m 36.373047,-5.4140625 q -1.203125,0 -1.81543,0.4082031 -0.601562,0.4082032 -0.601562,1.203125 0,0.7304688 0.483398,1.1494141 0.494141,0.4082031 1.364258,0.4082031 1.084961,0 1.826172,-0.7734375 0.741211,-0.7841797 0.741211,-1.9550781 v -0.4404297 z m 5.875976,-1.4501953 V 0 h -3.877929 v -1.7832031 q -0.773438,1.0957031 -1.740235,1.60058591 -0.966797,0.49414063 -2.352539,0.49414063 -1.86914,0 -3.040039,-1.08496094 -1.160156,-1.0957031 -1.160156,-2.8359375 0,-2.1162109 1.450195,-3.1044922 1.460938,-0.9882812 4.576172,-0.9882812 h 2.266602 v -0.3007813 q 0,-0.9130859 -0.719727,-1.3320312 -0.719726,-0.4296875 -2.245117,-0.4296875 -1.235352,0 -2.298828,0.2470703 -1.063477,0.2470703 -1.976563,0.7412109 v -2.9326168 q 1.235352,-0.300782 2.481446,-0.451172 1.246093,-0.161133 2.492187,-0.161133 3.254883,0 4.694336,1.289062 1.450195,1.2783207 1.450195,4.1679692 z" />
         <path id="path27" style=""
            d="m 44.773437,-12.03125 h 3.738282 l 2.019531,8.2929687 2.030273,-8.2929687 h 3.211914 l 2.019532,8.2070312 2.030273,-8.2070312 h 3.738281 L 60.392578,0 H 56.192383 L 54.162109,-8.2714844 52.142578,0 h -4.200195 z" />
      </g>
      <g id="hub" style="fill:#191a1d" transform="translate(109,130) scale(0.85 0.93)" aria-label="hub">
         <path id="path30" style=""
            d="M 13.943359,-7.3261719 V 0 h -3.867187 v -1.1923828 -4.3935547 q 0,-1.5791016 -0.07519,-2.1699219 Q 9.9365234,-8.3466797 9.7646484,-8.6259766 9.5390625,-9.0019531 9.1523438,-9.2060547 8.765625,-9.4208984 8.2714844,-9.4208984 q -1.203125,0 -1.890625,0.9345703 -0.6875,0.9238281 -0.6875,2.5673828 V 0 H 1.8476562 v -16.714844 h 3.8457032 v 6.445313 q 0.8701172,-1.052735 1.8476562,-1.546875 0.9775391,-0.504883 2.1591797,-0.504883 2.0839847,0 3.1582027,1.27832 1.084961,1.2783206 1.084961,3.7167971 z" />
         <path id="path32" style=""
            d="M 17.402344,-4.6835937 V -12.03125 h 3.867187 v 1.203125 q 0,0.9775391 -0.01074,2.4599609 -0.01074,1.4716797 -0.01074,1.9658204 0,1.4501953 0.0752,2.0947265 0.0752,0.6337891 0.257813,0.9238281 0.236328,0.3759766 0.612304,0.5800782 0.386719,0.2041015 0.88086,0.2041015 1.203125,0 1.890625,-0.9238281 0.6875,-0.9238281 0.6875,-2.5673828 V -12.03125 h 3.845703 V 0 h -3.845703 v -1.7402344 q -0.870117,1.0527344 -1.847657,1.55761721 -0.966796,0.49414063 -2.137695,0.49414063 -2.083984,0 -3.179687,-1.27832032 -1.084961,-1.27832032 -1.084961,-3.71679682 z" />
         <path id="path34" style=""
            d="m 39.617187,-2.4814453 q 1.235352,0 1.879883,-0.9023438 0.655274,-0.9023437 0.655274,-2.6210937 0,-1.71875 -0.655274,-2.6210938 -0.644531,-0.9023437 -1.879883,-0.9023437 -1.235351,0 -1.901367,0.9130859 -0.655273,0.9023438 -0.655273,2.6103516 0,1.7080078 0.655273,2.6210937 0.666016,0.9023438 1.901367,0.9023438 z m -2.55664,-7.7880857 q 0.794922,-1.052735 1.761719,-1.546875 0.966796,-0.504883 2.223632,-0.504883 2.223633,0 3.652344,1.772461 1.428711,1.7617186 1.428711,4.5439452 0,2.7822265 -1.428711,4.5546875 -1.428711,1.76171874 -3.652344,1.76171874 -1.256836,0 -2.223632,-0.49414063 Q 37.855469,-0.6875 37.060547,-1.7402344 V 0 h -3.845703 v -16.714844 h 3.845703 z" />
      </g>
   </g>
</svg>